<svg width="384" height="384" viewBox="0 0 384 384" fill="none" xmlns="http://www.w3.org/2000/svg">
  <style>
    #bg { fill: hsl(300, 20.0%, 99.0%); }

    #robot { fill: hsl(292, 45.0%, 51.0%); }

    @media (prefers-color-scheme: dark) {
      #bg { fill: hsl(246, 6.0%, 9.0%); }
    }
  </style>

  <rect id="bg" width="384" height="384" rx="80"/>
  <path id="robot" d="M317.913 216.833H305.345C305.345 168.198 266.01 128.862 217.375 128.862H204.807V112.902C208.629 110.695 211.803 107.521 214.009 103.699C216.215 99.8769 217.376 95.5412 217.375 91.1281C217.373 86.715 216.21 82.3799 214.002 78.5589C211.794 74.7379 208.619 71.5656 204.796 69.3609C200.973 67.1563 196.637 65.9972 192.224 66C187.811 66.0028 183.476 67.1676 179.656 69.3771C175.836 71.5866 172.665 74.7629 170.462 78.5868C168.258 82.4107 167.101 86.7472 167.105 91.1603C167.105 100.46 172.132 108.629 179.673 112.902V128.862H167.105C118.47 128.862 79.1345 168.198 79.1345 216.833H66.5673C59.6553 216.833 54 222.488 54 229.4V267.102C54 274.014 59.6553 279.669 66.5673 279.669H79.1345V292.237C79.1345 298.903 81.7826 305.296 86.4963 310.01C91.2099 314.723 97.603 317.371 104.269 317.371H280.211C294.161 317.371 305.345 306.186 305.345 292.237V279.669H317.913C324.825 279.669 330.48 274.014 330.48 267.102V229.4C330.48 222.488 324.825 216.833 317.913 216.833ZM164.466 248.251C159.565 237.192 148.632 229.4 135.687 229.4C122.743 229.4 111.809 237.192 106.908 248.251C105.274 244.355 104.269 240.208 104.269 235.684C104.269 227.351 107.579 219.36 113.471 213.468C119.363 207.576 127.355 204.266 135.687 204.266C144.02 204.266 152.011 207.576 157.903 213.468C163.795 219.36 167.105 227.351 167.105 235.684C167.105 240.208 166.1 244.355 164.466 248.251ZM277.572 248.251C272.671 237.192 261.36 229.4 248.793 229.4C236.225 229.4 224.915 237.192 220.014 248.251C218.38 244.355 217.375 240.208 217.375 235.684C217.375 227.351 220.685 219.36 226.577 213.468C232.469 207.576 240.46 204.266 248.793 204.266C257.125 204.266 265.117 207.576 271.009 213.468C276.901 219.36 280.211 227.351 280.211 235.684C280.211 240.208 279.206 244.355 277.572 248.251Z"/>
</svg>
