<svg width="144" height="144" viewBox="0 0 144 144" fill="none" xmlns="http://www.w3.org/2000/svg">
  <style>
    #bg { fill: hsl(300, 20.0%, 99.0%); }

    #robot { fill: hsl(292, 45.0%, 51.0%); }

    @media (prefers-color-scheme: dark) {
      #bg { fill: hsl(246, 6.0%, 9.0%); }
    }
  </style>

  <rect id="bg" width="144" height="144" rx="72"/>
  <path id="robot" d="M115.636 74.8726H111.273C111.273 57.9853 97.6145 44.3271 80.7273 44.3271H76.3636V38.7853C77.6907 38.0191 78.7926 36.9171 79.5586 35.5899C80.3246 34.2628 80.7277 32.7574 80.7273 31.225C80.7269 29.6927 80.323 28.1875 79.5564 26.8607C78.7897 25.534 77.6872 24.4325 76.3598 23.667C75.0323 22.9015 73.5267 22.499 71.9944 22.5C70.4621 22.501 68.957 22.9054 67.6306 23.6726C66.3041 24.4398 65.203 25.5427 64.438 26.8704C63.6731 28.1981 63.2712 29.7039 63.2727 31.2362C63.2727 34.4653 65.0182 37.3017 67.6364 38.7853V44.3271H63.2727C46.3855 44.3271 32.7273 57.9853 32.7273 74.8726H28.3636C25.9636 74.8726 24 76.8362 24 79.2362V92.3271C24 94.7271 25.9636 96.6908 28.3636 96.6908H32.7273V101.054C32.7273 103.369 33.6468 105.589 35.2834 107.226C36.9201 108.862 39.1399 109.782 41.4545 109.782H102.545C107.389 109.782 111.273 105.898 111.273 101.054V96.6908H115.636C118.036 96.6908 120 94.7271 120 92.3271V79.2362C120 76.8362 118.036 74.8726 115.636 74.8726ZM62.3564 85.7817C60.6545 81.9417 56.8582 79.2362 52.3636 79.2362C47.8691 79.2362 44.0727 81.9417 42.3709 85.7817C41.8036 84.4289 41.4545 82.9889 41.4545 81.418C41.4545 78.5248 42.6039 75.75 44.6497 73.7041C46.6956 71.6583 49.4704 70.5089 52.3636 70.5089C55.2569 70.5089 58.0317 71.6583 60.0775 73.7041C62.1234 75.75 63.2727 78.5248 63.2727 81.418C63.2727 82.9889 62.9236 84.4289 62.3564 85.7817ZM101.629 85.7817C99.9273 81.9417 96 79.2362 91.6364 79.2362C87.2727 79.2362 83.3455 81.9417 81.6436 85.7817C81.0764 84.4289 80.7273 82.9889 80.7273 81.418C80.7273 78.5248 81.8766 75.75 83.9225 73.7041C85.9683 71.6583 88.7431 70.5089 91.6364 70.5089C94.5296 70.5089 97.3044 71.6583 99.3503 73.7041C101.396 75.75 102.545 78.5248 102.545 81.418C102.545 82.9889 102.196 84.4289 101.629 85.7817Z"/>
</svg>
