<svg width="192" height="192" viewBox="0 0 192 192" fill="none" xmlns="http://www.w3.org/2000/svg">
  <style>
    #bg { fill: hsl(300, 20.0%, 99.0%); }

    #robot { fill: hsl(292, 45.0%, 51.0%); }

    @media (prefers-color-scheme: dark) {
      #bg { fill: hsl(246, 6.0%, 9.0%); }
    }
  </style>

  <rect id="bg" width="192" height="192" rx="96"/>
  <path id="robot" d="M154.182 99.8301H148.364C148.364 77.3137 130.153 59.1028 107.636 59.1028H101.818V51.7137C103.588 50.6922 105.057 49.2228 106.078 47.4532C107.099 45.6837 107.637 43.6765 107.636 41.6334C107.636 39.5903 107.097 37.5833 106.075 35.8143C105.053 34.0453 103.583 32.5766 101.813 31.556C100.043 30.5353 98.0357 29.9987 95.9925 30C93.9494 30.0013 91.9427 30.5405 90.1741 31.5635C88.4055 32.5864 86.9374 34.0569 85.9174 35.8272C84.8974 37.5975 84.3615 39.6052 84.3636 41.6483C84.3636 45.9537 86.6909 49.7356 90.1818 51.7137V59.1028H84.3636C61.8473 59.1028 43.6364 77.3137 43.6364 99.8301H37.8182C34.6182 99.8301 32 102.448 32 105.648V123.103C32 126.303 34.6182 128.921 37.8182 128.921H43.6364V134.739C43.6364 137.825 44.8623 140.785 47.0446 142.967C49.2268 145.15 52.1866 146.376 55.2727 146.376H136.727C143.185 146.376 148.364 141.197 148.364 134.739V128.921H154.182C157.382 128.921 160 126.303 160 123.103V105.648C160 102.448 157.382 99.8301 154.182 99.8301ZM83.1418 114.376C80.8727 109.256 75.8109 105.648 69.8182 105.648C63.8255 105.648 58.7636 109.256 56.4945 114.376C55.7382 112.572 55.2727 110.652 55.2727 108.557C55.2727 104.7 56.8052 101 59.533 98.2722C62.2608 95.5444 65.9605 94.0119 69.8182 94.0119C73.6759 94.0119 77.3756 95.5444 80.1034 98.2722C82.8312 101 84.3636 104.7 84.3636 108.557C84.3636 110.652 83.8982 112.572 83.1418 114.376ZM135.505 114.376C133.236 109.256 128 105.648 122.182 105.648C116.364 105.648 111.127 109.256 108.858 114.376C108.102 112.572 107.636 110.652 107.636 108.557C107.636 104.7 109.169 101 111.897 98.2722C114.624 95.5444 118.324 94.0119 122.182 94.0119C126.04 94.0119 129.739 95.5444 132.467 98.2722C135.195 101 136.727 104.7 136.727 108.557C136.727 110.652 136.262 112.572 135.505 114.376Z"/>
</svg>
